<?xml version="1.0" encoding="iso-8859-1"?>
<!-- Generator: Adobe Illustrator 19.0.0, SVG Export Plug-In . SVG Version: 6.00 Build 0)  -->
<svg version="1.1" id="Layer_1" xmlns="http://www.w3.org/2000/svg" xmlns:xlink="http://www.w3.org/1999/xlink" x="0px" y="0px"
	 viewBox="0 0 505 505" style="enable-background:new 0 0 505 505;" xml:space="preserve">
<circle style="fill:#24292f;" cx="252.5" cy="252.5" r="252.5"/>
<path style="fill:#FFFFFF;" d="M370.7,90.2H134.3c-6.4,0-11.6,5.2-11.6,11.6V403c0,6.4,5.2,11.6,11.6,11.6h236.3
	c6.4,0,11.6-5.2,11.6-11.6V101.9C382.3,95.5,377.1,90.2,370.7,90.2z"/>
<path style="fill:#324A5E;" d="M345.8,110.4H159.2c-9.9,0-18,8.1-18,18v248.3c0,9.9,8.1,18,18,18h186.5c9.9,0,18-8.1,18-18V128.4
	C363.8,118.4,355.7,110.4,345.8,110.4z"/>
<circle style="fill:#FFFFFF;" cx="252.5" cy="215.1" r="91.9"/>
<circle style="fill:#999999;" cx="252.5" cy="215.1" r="25.8"/>
<g>
	<circle style="fill:#999999;" cx="344.4" cy="129.3" r="6.4"/>
	<circle style="fill:#999999;" cx="160.7" cy="129.3" r="6.4"/>
	<circle style="fill:#999999;" cx="344.4" cy="375.7" r="6.4"/>
	<circle style="fill:#999999;" cx="160.7" cy="375.7" r="6.4"/>
</g>
<g>
	<polygon style="fill:#999999;" points="230.2,337.3 208.9,316 306.5,234.8 309,237.3 	"/>
	<circle style="fill:#999999;" cx="202.9" cy="343.3" r="35.8"/>
</g>
<circle style="fill:#FFFFFF;" cx="202.9" cy="343.3" r="11.3"/>
<g>
</g>
<g>
</g>
<g>
</g>
<g>
</g>
<g>
</g>
<g>
</g>
<g>
</g>
<g>
</g>
<g>
</g>
<g>
</g>
<g>
</g>
<g>
</g>
<g>
</g>
<g>
</g>
<g>
</g>
</svg>
